<svg xmlns="http://www.w3.org/2000/svg" width="256" height="256" viewBox="0 0 24 24">
  <circle cx="12" cy="12" r="11.5" fill="#121212"/>
  <g transform="translate(12 12) scale(0.74) translate(-12 -12)">
    <path
      fill="#56AC84"
      fill-rule="evenodd"
      clip-rule="evenodd"
      d="M5 8a4 4 0 0 1 4 4a4 4 0 0 1-4 4a4 4 0 0 1-4-4a4 4 0 0 1 4-4m7-7a4 4 0 0 1 4 4a4 4 0 0 1-4 4a4 4 0 0 1-4-4a4 4 0 0 1 4-4m0 14a4 4 0 0 1 4 4a4 4 0 0 1-4 4a4 4 0 0 1-4-4a4 4 0 0 1 4-4m7-7a4 4 0 0 1 4 4a4 4 0 0 1-4 4a4 4 0 0 1-4-4a4 4 0 0 1 4-4m-7-5a2 2 0 0 0-2 2a2 2 0 0 0 2 2a2 2 0 0 0 2-2a2 2 0 0 0-2-2m-7 7a2 2 0 0 0-2 2a2 2 0 0 0 2 2a2 2 0 0 0 2-2a2 2 0 0 0-2-2m14 0a2 2 0 0 0-2 2a2 2 0 0 0 2 2a2 2 0 0 0 2-2a2 2 0 0 0-2-2"/>
  </g>
</svg>